# xmcd
#
# Track frame offsets:
#	150
#	20987
#	34927
#	49292
#	65862
#	81930
#	100195
#	113400
#	130685
#	148752
#	167580
#	180367
#	193895
#	212772
#	224940
#	241665
#	254110
#	273052
#	291187
#	310515
#
# Disc length: 4402 seconds
#
# Revision: 1
# Processed by: cddbd v1.5.2PL0 Copyright (c) Steve Scherf et al.
# Submitted via: audiograbber 1.83.01
#
DISCID=34113014
DTITLE=VINCE GILL - THMP-21
DYEAR=1900
DGENRE=KARAOKE
TTITLE0=IF YOU EVER LEAVE ME
TTITLE1=DON'T COME CRYIN' TO ME
TTITLE2=KINDLY KEEP IN COUNTRYTrack  3
TTITLE3=AIN'T NOTHING LIKE THE REAL THING
TTITLE4=DON'T LET OUR LOVE START SLIPPIN' AWAY
TTITLE5=I STILL BELIEVE IN YOU
TTITLE6=LIZA JANE
TTITLE7=LOOK AT US
TTITLE8=NEVER KNEW LONELY
TTITLE9=NO FUTURE IN THE PAST
TTITLE10=OKLAHOMA SWING
TTITLE11=ONE MORE LAST CHANCE
TTITLE12=POCKET FULL OF GOLD
TTITLE13=TAKE YOUR MEMORY WITH YOU
TTITLE14=TRYIN'G TO GET OVER YOU
TTITLE15=WHAT THE COWGIRLS
TTITLE16=WHEN I CALL YOUR NAME
TTITLE17=WHEN LOVE FINDS YOU
TTITLE18=WHENEVER YOU COME AROUND
TTITLE19=WHICH BRIDGE TO CROSS
EXTD=
EXTT0=
EXTT1=
EXTT2=
EXTT3=
EXTT4=
EXTT5=
EXTT6=
EXTT7=
EXTT8=
EXTT9=
EXTT10=
EXTT11=
EXTT12=
EXTT13=
EXTT14=
EXTT15=
EXTT16=
EXTT17=
EXTT18=
EXTT19=
PLAYORDER=
